<?xml version="1.0" encoding="UTF-8"?>
<svg width="17px" height="24px" viewBox="0 0 17 24" version="1.1" xmlns="http://www.w3.org/2000/svg" xmlns:xlink="http://www.w3.org/1999/xlink">
    <!-- Generator: Sketch 51.3 (57544) - http://www.bohemiancoding.com/sketch -->
    <title>Group 29</title>
    <desc>Created with Sketch.</desc>
    <defs></defs>
    <g id="Page-1" stroke="none" stroke-width="1" fill="none" fill-rule="evenodd">
        <g id="WickerPark" transform="translate(-828.000000, -4555.000000)">
            <g id="contact-us" transform="translate(0.000000, 4271.000000)">
                <g id="Group-30">
                    <g id="Group-26">
                        <g id="Form" transform="translate(92.000000, 148.000000)">
                            <g id="Group-28">
                                <g id="Group-33" transform="translate(733.000000, 132.000000)">
                                    <g id="Group-34">
                                        <g id="Group-29" transform="translate(0.000000, 4.000000)">
                                            <rect id="Rectangle-8" fill="#D8D8D8" opacity="0" x="0" y="0" width="24" height="24"></rect>
                                            <g id="maps-and-flags" transform="translate(3.000000, 0.000000)" fill="#3E374B" fill-rule="nonzero">
                                                <path d="M8.5,0 C3.81307469,0 0,3.899161 0,8.69185434 C0,14.6397366 7.60666731,23.3715754 7.93052792,23.7403883 C8.2347231,24.0868419 8.76582698,24.0862325 9.06947208,23.7403883 C9.39333269,23.3715754 17,14.6397366 17,8.69185434 C16.9999083,3.899161 13.1868795,0 8.5,0 Z M8.50002412,13 C6.01867266,13 4,10.9813007 4,8.49997588 C4,6.01865102 6.01872089,4 8.50002412,4 C10.9813273,4 13,6.01869925 13,8.50002412 C13,10.981349 10.9813273,13 8.50002412,13 Z" id="Shape"></path>
                                            </g>
                                        </g>
                                    </g>
                                </g>
                            </g>
                        </g>
                    </g>
                </g>
            </g>
        </g>
    </g>
</svg>