<?xml version="1.0" encoding="UTF-8"?>
<svg width="24px" height="17px" viewBox="0 0 24 17" version="1.1" xmlns="http://www.w3.org/2000/svg" xmlns:xlink="http://www.w3.org/1999/xlink">
    <!-- Generator: Sketch 51.3 (57544) - http://www.bohemiancoding.com/sketch -->
    <title>Group 29</title>
    <desc>Created with Sketch.</desc>
    <defs></defs>
    <g id="Page-1" stroke="none" stroke-width="1" fill="none" fill-rule="evenodd">
        <g id="WickerPark" transform="translate(-825.000000, -4774.000000)">
            <g id="contact-us" transform="translate(0.000000, 4271.000000)">
                <g id="Group-30">
                    <g id="Group-26">
                        <g id="Form" transform="translate(92.000000, 148.000000)">
                            <g id="Group-28">
                                <g id="Group-33" transform="translate(733.000000, 132.000000)">
                                    <g id="Group-34-Copy" transform="translate(0.000000, 216.000000)">
                                        <g id="Group-29" transform="translate(0.000000, 4.000000)">
                                            <rect id="Rectangle-8" fill="#D8D8D8" opacity="0" x="0" y="0" width="24" height="24"></rect>
                                            <g id="black-envelope" transform="translate(0.000000, 3.000000)" fill="#3E374B" fill-rule="nonzero">
                                                <path d="M1.42987303,0.960643936 L10.0474166,7.58841998 C10.4381863,7.88862121 10.9766754,8.02204398 11.4997055,7.99702721 C12.0218768,8.02204398 12.5603659,7.8894551 12.9511355,7.58841998 L21.5686791,0.960643936 C22.2591819,0.432790107 22.102874,0 21.226863,0 L11.5005643,0 L1.7742656,0 C0.897395752,7.4064515e-16 0.741087905,0.432790107 1.42987303,0.960643936 Z" id="Shape"></path>
                                                <path d="M22.7249165,3.26265721 L13.2780989,10.2999705 C12.9248663,10.56033 12.4622178,10.6871284 12.0012923,10.6812112 C11.5395053,10.6871284 11.0768568,10.5594847 10.7236242,10.2999705 L1.27508346,3.26265721 C0.573787558,2.74109297 0,3.02089486 0,3.88396956 L0,15.4302353 C0,16.29331 0.720249847,17 1.59988513,17 L11.9995692,17 L22.4001149,17 C23.2797502,17 24,16.29331 24,15.4302353 L24,3.88396956 C24,3.02089486 23.4262124,2.74109297 22.7249165,3.26265721 Z" id="Shape"></path>
                                            </g>
                                        </g>
                                    </g>
                                </g>
                            </g>
                        </g>
                    </g>
                </g>
            </g>
        </g>
    </g>
</svg>