<?xml version="1.0" encoding="UTF-8"?>
<svg width="24px" height="24px" viewBox="0 0 24 24" version="1.1" xmlns="http://www.w3.org/2000/svg" xmlns:xlink="http://www.w3.org/1999/xlink">
    <!-- Generator: Sketch 51.3 (57544) - http://www.bohemiancoding.com/sketch -->
    <title>if_circle-facebook__317752 copy</title>
    <desc>Created with Sketch.</desc>
    <defs></defs>
    <g id="Page-1" stroke="none" stroke-width="1" fill="none" fill-rule="evenodd">
        <g id="WickerPark" transform="translate(-1272.000000, -5135.000000)">
            <g id="footer" transform="translate(256.000000, 5135.000000)">
                <g id="Social" transform="translate(976.000000, 0.000000)">
                    <g id="if_circle-facebook__317752-copy" transform="translate(40.000000, 0.000000)">
                        <circle id="Oval" stroke="#4A4A4A" stroke-width="0.75" cx="12" cy="12" r="11.625"></circle>
                        <path d="M18,8.94582266 C17.5948931,9.10729238 17.1606536,9.21477223 16.703328,9.26376304 C17.1705477,9.01480972 17.5278333,8.61938387 17.6965821,8.14797226 C17.2606936,8.37892895 16.7775335,8.54689746 16.2630422,8.63738049 C15.8518889,8.24545398 15.2648411,8 14.6162303,8 C13.3690286,8 12.3598341,8.90333063 12.3598341,10.0191214 C12.3598341,10.1765919 12.3796222,10.3315628 12.4169998,10.4805349 C10.5415251,10.394551 8.87932241,9.59070174 7.76624026,8.36993064 C7.57165701,8.66837468 7.45897462,9.01480972 7.45897462,9.38524027 C7.45897462,10.085109 7.85913452,10.7029932 8.46377174,11.066425 C8.09439336,11.0549272 7.74590246,10.9644442 7.44248451,10.8129726 C7.44193484,10.821471 7.44193484,10.8294695 7.44193484,10.8384678 C7.44193484,11.8172843 8.21971817,12.6336312 9.2519988,12.8195963 C9.06346192,12.8645879 8.86393164,12.8900831 8.65725565,12.8900831 C8.51214271,12.8900831 8.37142714,12.8780854 8.23345992,12.8545898 C8.5198381,13.6559395 9.35368779,14.23983 10.3408955,14.2573268 C9.57025785,14.7982253 8.59624225,15.1221646 7.53812712,15.1221646 C7.35673596,15.1221646 7.17589446,15.1126664 7,15.09317 C7.99820108,15.6660626 9.18548871,16 10.4601739,16 C14.6112832,16 16.8814211,12.922577 16.8814211,10.2535775 C16.8814211,10.1670937 16.8781231,10.0781104 16.8737258,9.99312629 C17.3145613,9.70618009 17.6971317,9.35074673 18,8.94582266 Z" id="Shape" fill="#4A4A4A" fill-rule="nonzero"></path>
                    </g>
                </g>
            </g>
        </g>
    </g>
</svg>