<?xml version="1.0" encoding="UTF-8"?>
<svg width="24px" height="24px" viewBox="0 0 24 24" version="1.1" xmlns="http://www.w3.org/2000/svg" xmlns:xlink="http://www.w3.org/1999/xlink">
    <!-- Generator: Sketch 51.3 (57544) - http://www.bohemiancoding.com/sketch -->
    <title>if_circle-facebook__317752 copy 2</title>
    <desc>Created with Sketch.</desc>
    <defs></defs>
    <g id="Page-1" stroke="none" stroke-width="1" fill="none" fill-rule="evenodd">
        <g id="WickerPark" transform="translate(-1312.000000, -5135.000000)">
            <g id="footer" transform="translate(256.000000, 5135.000000)">
                <g id="Social" transform="translate(976.000000, 0.000000)">
                    <g id="if_circle-facebook__317752-copy-2" transform="translate(80.000000, 0.000000)">
                        <circle id="Oval" stroke="#4A4A4A" stroke-width="0.75" cx="12" cy="12" r="11.625"></circle>
                        <g id="Group-2" transform="translate(8.000000, 8.000000)" fill="#4A4A4A" fill-rule="nonzero">
                            <rect id="Rectangle-path" x="0" y="2" width="2" height="7"></rect>
                            <path d="M6.7495,2 C5.354,2 5.114,2.509 5,3 L5,2 L3,2 L3,9 L5,9 L5,5 C5,4.3515 5.3515,4 6,4 C6.633,4 7,4.344 7,5 L7,9 L9,9 L9,5.5 C9,3.5 8.7395,2 6.7495,2 Z" id="Shape"></path>
                            <circle id="Oval" cx="1" cy="1" r="1"></circle>
                        </g>
                    </g>
                </g>
            </g>
        </g>
    </g>
</svg>