<?xml version="1.0" encoding="UTF-8"?>
<svg width="24px" height="24px" viewBox="0 0 24 24" version="1.1" xmlns="http://www.w3.org/2000/svg" xmlns:xlink="http://www.w3.org/1999/xlink">
    <!-- Generator: Sketch 51.3 (57544) - http://www.bohemiancoding.com/sketch -->
    <title>if_circle-facebook__317752 copy 3</title>
    <desc>Created with Sketch.</desc>
    <defs></defs>
    <g id="Page-1" stroke="none" stroke-width="1" fill="none" fill-rule="evenodd">
        <g id="WickerPark" transform="translate(-1352.000000, -5135.000000)">
            <g id="footer" transform="translate(256.000000, 5135.000000)">
                <g id="Social" transform="translate(976.000000, 0.000000)">
                    <g id="if_circle-facebook__317752-copy-3" transform="translate(120.000000, 0.000000)">
                        <circle id="Oval" stroke="#4A4A4A" stroke-width="0.75" cx="12" cy="12" r="11.625"></circle>
                        <g id="if_youtube_317714" transform="translate(6.000000, 8.000000)" fill-rule="nonzero">
                            <path d="M11.8799625,1.942125 C11.8799625,1.942125 11.7629259,1.05975 11.4031885,0.67125 C10.9466708,0.162 10.4353861,0.159 10.2009378,0.130125 C8.52153798,0 6.00262582,0 6.00262582,0 L5.99699906,0 C5.99699906,0 3.4780869,0 1.79906221,0.130125 C1.56461394,0.159 1.05370428,0.162 0.596811504,0.67125 C0.237449203,1.05975 0.120037512,1.942125 0.120037512,1.942125 C0.120037512,1.942125 0,2.9775 0,4.012875 L0,4.983375 C0,6.0195 0.120037512,7.0545 0.120037512,7.0545 C0.120037512,7.0545 0.237074086,7.9365 0.596811504,8.32425 C1.05370428,8.8335 1.65276649,8.818125 1.91984995,8.871375 C2.87977493,8.969625 6,9 6,9 C6,9 8.52153798,8.9955 10.2009378,8.866875 C10.4353861,8.836875 10.9466708,8.833875 11.4031885,8.324625 C11.7625508,7.936875 11.8799625,7.054875 11.8799625,7.054875 C11.8799625,7.054875 12,6.0195 12,4.98375 L12,4.01325 C12,2.9775 11.8799625,1.942125 11.8799625,1.942125 Z" id="Shape" fill="#4A4A4A"></path>
                            <polygon id="Shape" fill="#FFFFFF" points="5 2 5 7 9 4.5"></polygon>
                        </g>
                    </g>
                </g>
            </g>
        </g>
    </g>
</svg>